<?xml version="1.0" encoding="utf-8"?>
<!-- Generator: Adobe Illustrator 25.0.0, SVG Export Plug-In . SVG Version: 6.00 Build 0)  -->
<svg width="96" height="104" version="1.1" id="Layer_1" xmlns="http://www.w3.org/2000/svg" xmlns:xlink="http://www.w3.org/1999/xlink" x="0px" y="0px"
	 viewBox="0 0 96 104" style="enable-background:new 0 0 96 104;" xml:space="preserve">
<style type="text/css">
	.st0{fill-rule:evenodd;clip-rule:evenodd;fill:#FF4361;}
	.st1{fill-rule:evenodd;clip-rule:evenodd;fill:url(#SVGID_1_);}
	.st2{fill-rule:evenodd;clip-rule:evenodd;fill:url(#SVGID_2_);}
	.st3{fill:#F9F9F9;}
</style>
<g>
	<path class="st0" d="M48,17c14.6,0,26.5,11.9,26.5,26.5S62.6,70,48,70S21.5,58.1,21.5,43.5S33.4,17,48,17z"/>
	
		<linearGradient id="SVGID_1_" gradientUnits="userSpaceOnUse" x1="20.0001" y1="1049.135" x2="75" y2="985.8649" gradientTransform="matrix(1 0 0 1 0.5 -974)">
		<stop  offset="0" style="stop-color:#F80759"/>
		<stop  offset="1" style="stop-color:#BC4E9C"/>
	</linearGradient>
	<path class="st1" d="M48,17c14.6,0,26.5,11.9,26.5,26.5S62.6,70,48,70S21.5,58.1,21.5,43.5S33.4,17,48,17z"/>
</g>
<path class="st0" d="M42.5,1h10c16.6,0,30,13.4,30,30v10c0,16.6-13.4,30-30,30h-10c-16.6,0-30-13.4-30-30V31
	C12.5,14.4,25.9,1,42.5,1z"/>
<linearGradient id="SVGID_2_" gradientUnits="userSpaceOnUse" x1="11.0001" y1="1051.4131" x2="82.9999" y2="968.5869" gradientTransform="matrix(1 0 0 1 0.5 -974)">
	<stop  offset="0" style="stop-color:#F80759"/>
	<stop  offset="1" style="stop-color:#BC4E9C"/>
</linearGradient>
<path class="st2" d="M42.5,1h10c16.6,0,30,13.4,30,30v10c0,16.6-13.4,30-30,30h-10c-16.6,0-30-13.4-30-30V31
	C12.5,14.4,25.9,1,42.5,1z"/>
<g transform="translate(0.000000,512.000000) scale(0.100000,-0.100000)">
	<path class="st3" d="M392.5,5018.6c-31-4-54.8-15.3-75.5-36c-14.3-14.2-23.9-29.8-30.4-49.2c-6.5-19.4-6.2-10.1-6.2-213.6
		c0-176.9,0.1-183.9,1.7-185.3c1.5-1.4,4.8-1.6,26.9-1.6c14.2,0,25.7,0.4,26.5,1c1.2,0.8,1.5,23,1.9,186.9
		c0.5,175.8,0.7,186.3,2.3,191.7c5.7,19.2,18.3,34.4,35.2,42.7c25,12.2,53.9,7.8,74.6-11.4l5.7-5.3l6.8,4.3
		c3.8,2.3,14.4,8.5,23.6,13.5c9.1,5.1,17.2,9.9,17.9,10.4c1,1,0.4,2.2-3.4,6.7c-23.7,28.5-56,44.4-92.2,45.5
		C401.2,5018.9,394.3,5018.8,392.5,5018.6z"/>
	<path class="st3" d="M538.3,4949.4c-9.1-2-14.3-4.5-37.8-17.7c-27.3-15.5-30.4-17.5-37-24.4c-10.5-11-16.7-24-18.9-39.5
		c-2-14.1,0.8-27.5,8.8-42.5l4-7.4l4.7,2.8c2.7,1.5,38.2,21.6,78.9,44.6c40.8,23,74.4,42.2,74.8,42.6c1.2,1.2-8.2,15.6-14.4,22
		c-9.8,10.2-21.5,16.6-35.2,19.5C558.2,4951.1,546,4951.1,538.3,4949.4z"/>
	<path class="st3" d="M648,4892.6c-2.5-1.1-47.5-26.4-100.1-56.2c-106.7-60.3-100.9-56.5-100-66.2c0.4-3.9,1.6-6.9,5.3-13.3
		c5.4-9,8.2-11.5,14.8-13.3c5.6-1.5,10.2-0.4,19.2,4.8c3.6,2,45.7,25.8,93.5,52.8c66,37.2,87.8,49.9,90.4,52.8
		c4.3,4.7,6.1,11.2,4.7,16.6c-0.6,2.1-3,7.3-5.5,11.8c-3.9,6.8-5.2,8.5-8.8,10.3C656.1,4895.3,653.5,4895.3,648,4892.6z"/>
	<path class="st3" d="M665.3,4795c-6.6-4-8.6-12.3-4.8-18.9c2.6-4.4,14.2-14.2,18.3-15.5c10.3-3.2,20.5,6.7,17.7,17.2
		c-0.7,2.7-2.8,5.3-7.3,9.6c-3.4,3.2-7.6,6.7-9.2,7.7C676.1,4797.5,669.3,4797.5,665.3,4795z"/>
	<path class="st3" d="M603.9,4760.3c-2.1-0.8-3.9-1.4-4-1.4s-1.3-1.6-2.7-3.5c-4-5.9-3.4-11.1,2.4-21.1c3.6-6.5,5.5-8.7,8.6-10.4
		c9.4-5.3,20.8,1.6,20.8,12.5c0,3.2-4.6,13-8.8,19.1c-1.9,2.7-8.3,6.3-11.1,6.2C608.3,4761.7,606,4761.1,603.9,4760.3z"/>
	<path class="st3" d="M736.9,4747c-2.1-0.8-3.9-1.4-4-1.4s-1.3-1.6-2.7-3.5c-2.7-4-3.2-10.4-1.1-14.5c1.9-3.8,15.7-15.1,19.8-16.1
		c10.6-2.9,20.3,7.3,17.1,18.1c-1.8,5.9-18.2,18.9-23.8,18.8C741.3,4748.4,739,4747.8,736.9,4747z"/>
	<path class="st3" d="M539.3,4724.3c-3.8-1.7-6.9-5.3-8.1-9.1c-1.2-4.4,1.5-21,4.2-25.1c3.6-5.3,11.9-7.9,17-5.2
		c3.9,2,7.3,6,8.3,9.6c1.1,4.1-1,19.1-3.3,23.7C554.2,4724.1,545.3,4727.2,539.3,4724.3z"/>
	<path class="st3" d="M671.8,4710.7c-6.5-3.2-9.7-12.5-6.6-18.5c3.1-5.8,11.5-15.8,14.4-17.2c7.2-3.4,14.9-0.9,18.5,6.1
		c3.6,7.2,2.8,10.4-5.5,21.7C686,4711.8,679.2,4714.5,671.8,4710.7z"/>
	<path class="st3" d="M606.3,4673.8c-6.5-5.5-7.1-10.8-2.8-21.9c3.6-9.2,4.9-11.3,8.7-13.6c6.7-4.2,16-1.4,19.8,5.7
		c2.5,4.6,2.3,7.4-1.1,16.4c-4.9,12.9-8.2,15.9-16.9,15.9C610.2,4676.3,608.6,4675.7,606.3,4673.8z"/>
	<path class="st3" d="M544.5,4639.4c-7.5-4.1-8.9-10-6.2-25.3c1-6.2,1.8-8.1,4.5-10.7c6-6.2,15-6.2,20.6,0.2
		c1.5,1.8,3.1,4.7,3.4,6.4c0.9,4.7-2,21.6-4.1,24.4C558.1,4640.6,550.5,4642.7,544.5,4639.4z"/>
</g>
</svg>
