<?xml version="1.0" encoding="utf-8"?>
<!-- Generator: Adobe Illustrator 25.0.0, SVG Export Plug-In . SVG Version: 6.00 Build 0)  -->
<svg width="96" height="104" version="1.1" id="Layer_1" xmlns="http://www.w3.org/2000/svg" xmlns:xlink="http://www.w3.org/1999/xlink" x="0px" y="0px"
	 viewBox="0 0 96 104" style="enable-background:new 0 0 96 104;" xml:space="preserve">
<style type="text/css">
	.st0{fill-rule:evenodd;clip-rule:evenodd;fill:#FF4361;}
	.st1{fill-rule:evenodd;clip-rule:evenodd;fill:url(#SVGID_1_);}
	.st2{fill-rule:evenodd;clip-rule:evenodd;fill:url(#SVGID_2_);}
	.st3{fill:#FFFFFF;}
</style>
<g>
	<path class="st0" d="M48,17.8c14.5,0,26.2,11.8,26.2,26.2S62.5,70.3,48,70.3S21.8,58.5,21.8,44.1S33.5,17.8,48,17.8z"/>
	
		<linearGradient id="SVGID_1_" gradientUnits="userSpaceOnUse" x1="28.7597" y1="1054.8177" x2="83.7596" y2="991.5476" gradientTransform="matrix(0.9905 0 0 0.9905 -7.7238 -969.3619)">
		<stop  offset="0" style="stop-color:#F80759"/>
		<stop  offset="1" style="stop-color:#BC4E9C"/>
	</linearGradient>
	<path class="st1" d="M48,17.8c14.5,0,26.2,11.8,26.2,26.2S62.5,70.3,48,70.3S21.8,58.5,21.8,44.1S33.5,17.8,48,17.8z"/>
</g>
<path class="st0" d="M43.5,1h9.9c16.4,0,29.7,13.3,29.7,29.7v9.9c0,16.4-13.3,29.7-29.7,29.7h-9.9c-16.4,0-29.7-13.3-29.7-29.7v-9.9
	C13.8,14.3,27.1,1,43.5,1z"/>
<linearGradient id="SVGID_2_" gradientUnits="userSpaceOnUse" x1="20.7597" y1="1056.0958" x2="92.7595" y2="973.2696" gradientTransform="matrix(0.9905 0 0 0.9905 -7.7238 -969.3619)">
	<stop  offset="0" style="stop-color:#FF416C"/>
	<stop  offset="1" style="stop-color:#FF4B2B"/>
</linearGradient>
<path class="st2" d="M43.5,1h9.9c16.4,0,29.7,13.3,29.7,29.7v9.9c0,16.4-13.3,29.7-29.7,29.7h-9.9c-16.4,0-29.7-13.3-29.7-29.7v-9.9
	C13.8,14.3,27.1,1,43.5,1z"/>
<g transform="translate(0.000000,512.000000) scale(0.100000,-0.100000)">
	<path class="st3" d="M392.1,4982.4c-5.4-1.7-12.9-8.5-15.5-14.4c-1.9-4.3-2.1-5.9-2.4-20.8L374,4931h164c162.6,0,164,0,167.4,1.7
		c6.1,3.1,6.9,5.9,6.9,24.7c0,18.7-0.8,21.5-6.9,24.7c-3.4,1.7-4.7,1.7-156.3,1.7C418.6,4983.7,395.6,4983.5,392.1,4982.4z"/>
	<path class="st3" d="M374,4884.7c-0.4-19.2-0.6-21.1-2.8-28.2c-3.6-11.9-10.9-24.9-17.4-30.9c-3.1-2.9-5.6-7.9-5.6-11.3
		c0-4.4,3.1-9.2,6.9-11.3c3.1-1.6,5.1-1.7,23.3-1.7h20l3.6,4.6c4.4,5.3,11.3,19.5,13.4,27.4c1.3,4.9,1.6,10.3,1.8,38.7l0.3,33.1
		h-21.5h-21.6L374,4884.7z"/>
	<path class="st3" d="M443.4,4875.2c0-39.2-1.3-47.9-9.9-66.7c-1.7-3.6-3.1-6.5-3.1-6.7c0-0.2,8.4-0.3,18.6-0.3h18.6l3.6,4.6
		c4.4,5.3,11.3,19.5,13.4,27.4c1.3,4.9,1.6,10.3,1.8,38.7l0.3,33.1H465h-21.7V4875.2z"/>
	<path class="st3" d="M512.6,4875.2c0-39.2-1.3-47.9-9.9-66.7c-1.7-3.6-3.1-6.5-3.1-6.7c0-0.8,6-0.3,11.7,1
		c15.9,3.3,31.3,15.4,38.4,30c5.6,11.5,6.1,15.4,6.1,46v26.5h-21.6h-21.6L512.6,4875.2L512.6,4875.2z"/>
	<path class="st3" d="M341.7,4873.7c-16.5-5.4-30.3-14-42.9-26.7c-19.5-19.9-30.4-49-29-77.6c1.1-22,7.4-36.4,27.6-62.9
		c20.8-27.5,23.5-33.6,24.9-58.6c1.7-27.9,7.3-46.1,20.7-65.8c9.2-13.9,20-24.2,33.9-32.8c6.8-4.3,18-8.2,22.9-8.2
		c4.5,0,9.6,3,11.5,6.7c2,3.9,9.6,36.2,12.1,51.1c1,5.8,2.1,16.4,2.4,23.4c0.6,14.9,1.8,18.6,7.1,21.5c4.2,2.4,7.8,2.4,12.3,0.1
		c4.9-2.4,6.7-6.9,6.8-15.5c0-15.9,2.4-31.3,9.2-60.5c4.6-19.5,5.8-22.7,10.6-25.1c4.5-2.3,7.9-2.2,16.1,0.4
		c16.2,5.2,34.6,20.2,47,38.8c13.3,19.7,19.1,38.2,20.7,66.1c1.4,24.2,4.4,31.3,23.4,56.4c9.8,13,13.8,18.9,17.5,26.4l3.1,6.1
		l-5.3,1.5c-9.4,2.6-16,6.4-23.2,13.5c-11,10.9-16.1,24.5-15.3,39.5l0.5,7.1l-6.8-5.4c-7.2-5.7-16.1-10.6-24.8-13.5
		c-12.1-4.3-14.7-4.4-94.1-4.4c-79.7,0-78.3-0.1-87.7,4.5c-5.2,2.5-14,11.3-16.6,16.6c-7.8,16-5.3,31.2,7.2,45.6
		c3.1,3.6,6.9,9.1,8.6,12.5c2.9,5.6,6,17.4,5.4,20.1C347.9,4875.3,346.3,4875.2,341.7,4873.7z M419.2,4747.7c3.9-2,6.9-6.9,6.9-11.3
		c0-6.5-6.4-13-13-13c-4.4,0-9.2,3.1-11.3,6.9c-2.2,4.4-2.2,7.8,0,12.1C405,4748.9,412.5,4751,419.2,4747.7z M498.9,4748.5
		c7.4-1.6,13.7-5.1,19.4-10.6c22.3-22.4,10.1-60.2-21.2-65.6c-15.9-2.8-32.6,5.5-40.1,19.9c-8.2,15.6-5.6,33.3,6.7,45.6
		C473.2,4747.4,485.9,4751.1,498.9,4748.5z"/>
	<path class="st3" d="M484.8,4721.7c-3.8-1.9-6.7-7-6.7-11.2c0-6.4,6.5-13,12.9-13c6.6,0,13.1,6.4,13.1,13c0,4.4-3.1,9.2-6.9,11.3
		C492.8,4723.9,488.8,4723.9,484.8,4721.7z"/>
	<path class="st3" d="M599.3,4812.8c-21.7-7.8-23.6-37.3-3.1-47.4c7-3.5,15.8-3.5,22.9,0c9.2,4.6,14.1,12.5,14.1,23.1
		c0,7.3-1.8,12.3-6.4,17.5C620.5,4813,608.4,4816,599.3,4812.8z"/>
	<path class="st3" d="M614.4,4695.8c-3.8-1.9-6.7-7-6.7-11.2c0-6.4,6.5-13,12.9-13c6.6,0,13.1,6.4,13.1,13c0,4.4-3.1,9.2-6.9,11.3
		C622.4,4698,618.6,4698,614.4,4695.8z"/>
</g>
</svg>
