<?xml version="1.0" encoding="utf-8"?>
<!-- Generator: Adobe Illustrator 25.0.0, SVG Export Plug-In . SVG Version: 6.00 Build 0)  -->
<svg width="96" height="104" version="1.1" id="Layer_1" xmlns="http://www.w3.org/2000/svg" xmlns:xlink="http://www.w3.org/1999/xlink" x="0px" y="0px"
	 viewBox="0 0 96 104" style="enable-background:new 0 0 96 104;" xml:space="preserve">
<style type="text/css">
	.st0{fill-rule:evenodd;clip-rule:evenodd;fill:#FF4361;}
	.st1{fill-rule:evenodd;clip-rule:evenodd;fill:url(#SVGID_1_);}
	.st2{fill:#FFFFFF;}
</style>
<g>
	<path class="st0" d="M48,17c14.6,0,26.5,11.9,26.5,26.5C74.4,58.1,62.6,70,48,70S21.5,58.1,21.5,43.5S33.3,17,48,17z"/>
</g>
<path class="st0" d="M42.5,1h10c16.6,0,30,13.4,30,30v10c0,16.6-13.4,30-30,30h-10c-16.6,0-30-13.4-30-30V31
	C12.5,14.4,25.9,1,42.5,1z"/>
<linearGradient id="SVGID_1_" gradientUnits="userSpaceOnUse" x1="11.4788" y1="1051.4005" x2="83.4875" y2="968.6382" gradientTransform="matrix(1 0 0 1 0 -974)">
	<stop  offset="0" style="stop-color:#FF5858"/>
	<stop  offset="1" style="stop-color:#F857A6"/>
</linearGradient>
<path class="st1" d="M42.5,1h10c16.6,0,30,13.4,30,30v10c0,16.6-13.4,30-30,30h-10c-16.6,0-30-13.4-30-30V31
	C12.5,14.4,25.9,1,42.5,1z"/>
<g transform="translate(0.000000,512.000000) scale(0.100000,-0.100000)">
	<path class="st2" d="M435.2,4995.2c-20.2-6.7-29.8-28.6-21.2-48c1.5-3.3,7.2-9.7,23.8-26.3c26.4-26.6,27.4-27.2,41.9-27.2
		c15,0,16.3,0.8,40.9,25.2c11.2,11,21.4,21.9,22.9,24.2c8.5,13.5,6.8,30.7-4.3,42.5c-8.7,9.3-22.3,13.2-34.2,9.7
		c-7.3-2.1-10.6-4.3-18.7-11.9l-6.7-6.4l-7.3,7c-9.2,9-14.9,11.7-24.9,12.3C442.3,4996.8,439.1,4996.4,435.2,4995.2z"/>
	<path class="st2" d="M465.1,4855.4c-28.1-3-54.2-16.2-71.1-36c-12.1-14.2-23.7-34.9-31.6-56.9c-28.8-79-30.1-83.7-32.5-105.9
		c-7-70.2,27.6-116.2,97.4-129c11.1-2,29.7-4.3,36.1-4.3h2.5v43.8v43.9l-5.3,3c-8.6,4.9-16.9,14-21.6,23.4c-3.8,7.8-4,8.6-4,16.2
		c0,9.5,2.6,16.2,8.6,22.2c8.1,8.1,17.1,10.7,36.6,10.7c20-0.1,29.1-3,37-11.7c5.7-6.3,7.4-11,7.4-21.2c0-8.3-0.2-9.2-3.6-16.2
		c-4.3-8.8-15-20-22.5-23.9l-4.9-2.4v-44V4523l8.6,0.6c59.5,4.3,96.7,23.5,116.1,59.7c8.1,15.3,11.2,28.3,11.8,51.3
		c0.8,28.4-2.2,43.6-16.2,82c-4.5,12.4-10.8,29.8-14,38.6c-10.6,29.6-22.8,51.7-36.6,66.4c-21,22.3-45.3,32.7-79,33.8
		C478.1,4856.1,469.4,4855.9,465.1,4855.4z M440,4758.4c1.8-0.9,4.2-3.3,5.3-5.3c1.9-3.2,2.1-4.8,2.1-17c0-11.3-0.3-14-1.8-16.6
		c-5.2-9.9-19.3-9.9-24.4,0c-1.4,2.8-1.6,5.3-1.4,17.8c0.3,12.9,0.5,14.8,2.2,17.1C426.1,4759.9,434,4761.7,440,4758.4z
		 M534.1,4757.7c4.9-3.5,5.7-6.8,5.7-21.5c0-10.9-0.3-14-1.7-16.6c-4.9-9.9-19-9.9-24.4,0c-1.6,2.9-1.7,4.9-1.5,17.6
		c0.3,13,0.5,14.6,2.3,17.2c1.1,1.6,3.4,3.6,5.1,4.4C523.5,4760.7,530.8,4760.2,534.1,4757.7z"/>
	<path class="st2" d="M582.4,4845.4c-2.2-0.6-2-0.9,4-7.6c11.4-12.6,23.9-33.5,32.5-54.1c1.9-4.5,7.1-18.5,11.6-31
		s10.4-28.7,12.9-36.1c5.4-14.8,8.7-25.8,10.5-34.5c1-5.3,1.4-5.7,3.4-5.5c3.9,0.5,16.8,7.4,21.8,11.8c6.2,5.5,13.4,16.2,16.1,24.2
		c3.2,9.2,3.1,24.3-0.5,35.9c-6.9,22.8-25.1,50.3-48,72.3c-18,17.2-32.7,24.3-52,24.9C589.3,4846,583.6,4845.8,582.4,4845.4z"/>
	<path class="st2" d="M356.9,4844.3c-21.4-3.9-41.2-18-62.6-44.7c-22.4-27.9-34.1-55.3-32.5-76c1.4-18.6,13.8-36.2,31.4-44.8
		c11.1-5.4,11-5.4,13,4.9c1.8,8.7,7.7,26.3,22.6,67.7c10.5,29.5,12.8,34.9,19.7,48.7c6.8,13.7,15.1,26.3,23.5,36.1
		c3.4,4,6,7.4,5.8,7.7C376.9,4844.8,361.4,4845.1,356.9,4844.3z"/>
	<path class="st2" d="M468.9,4658.6c-4.3-0.7-6.7-2.4-6.7-4.4c0-2.8,3.8-8.5,8.4-12.7c7.1-6.4,10.2-6.7,17.4-1.5
		c4.5,3.3,9.3,10.4,9.3,13.9c0,1.8-0.7,2.8-2.5,3.7C491.8,4658.9,474.5,4659.6,468.9,4658.6z"/>
</g>
</svg>
