<?xml version="1.0" encoding="utf-8"?>
<!-- Generator: Adobe Illustrator 25.0.0, SVG Export Plug-In . SVG Version: 6.00 Build 0)  -->
<svg width="96" height="104" version="1.1" id="Layer_1" xmlns="http://www.w3.org/2000/svg" xmlns:xlink="http://www.w3.org/1999/xlink" x="0px" y="0px"
	 viewBox="0 0 96 104" style="enable-background:new 0 0 96 104;" xml:space="preserve">
<style type="text/css">
	.st0{fill-rule:evenodd;clip-rule:evenodd;fill:#FF4361;}
	.st1{fill-rule:evenodd;clip-rule:evenodd;fill:url(#SVGID_1_);}
	.st2{fill-rule:evenodd;clip-rule:evenodd;fill:url(#SVGID_2_);}
	.st3{fill:#FCFCFC;}
</style>
<g>
	<path class="st0" d="M47.7,17c14.6,0,26.5,11.9,26.5,26.5S62.3,70,47.7,70S21.2,58.1,21.2,43.5S33.1,17,47.7,17z"/>
	
		<linearGradient id="SVGID_1_" gradientUnits="userSpaceOnUse" x1="20.1983" y1="1049.1088" x2="75.2049" y2="985.8875" gradientTransform="matrix(1 0 0 1 0 -974)">
		<stop  offset="0" style="stop-color:#F80759"/>
		<stop  offset="1" style="stop-color:#BC4E9C"/>
	</linearGradient>
	<path class="st1" d="M47.7,17c14.6,0,26.5,11.9,26.5,26.5S62.3,70,47.7,70S21.2,58.1,21.2,43.5S33.1,17,47.7,17z"/>
</g>
<path class="st0" d="M42.2,1h10c16.6,0,30,13.4,30,30v10c0,16.6-13.4,30-30,30h-10c-16.6,0-30-13.4-30-30V31
	C12.2,14.4,25.7,1,42.2,1z"/>
<linearGradient id="SVGID_2_" gradientUnits="userSpaceOnUse" x1="11.2072" y1="1051.3871" x2="83.2163" y2="968.6248" gradientTransform="matrix(1 0 0 1 0 -974)">
	<stop  offset="0" style="stop-color:#F46B45"/>
	<stop  offset="1" style="stop-color:#EEA849"/>
</linearGradient>
<path class="st2" d="M42.2,1h10c16.6,0,30,13.4,30,30v10c0,16.6-13.4,30-30,30h-10c-16.6,0-30-13.4-30-30V31
	C12.2,14.4,25.7,1,42.2,1z"/>
<g transform="translate(0.000000,512.000000) scale(0.100000,-0.100000)">
	<path class="st3" d="M276.3,4982.6c-3.8-1.9-6.8-7.1-6.8-11.3c0-6.7,6.5-13.1,13.2-13.1s13.2,6.5,13.2,13.1c0,4.4-3.1,9.4-7,11.4
		C284.5,4984.9,280.5,4984.9,276.3,4982.6z"/>
	<path class="st3" d="M650.7,4982.6c-5.1-2.6-6.8-6.9-6.8-16.6v-7.9H636c-6.2,0-8.7-0.4-11.4-1.8c-3.9-2-7-7-7-11.4s3.1-9.4,7-11.4
		c2.7-1.4,5.2-1.8,11.4-1.8h7.9v-7.9c0-6.2,0.4-8.7,1.8-11.4c2-3.9,7-7,11.4-7s9.4,3.1,11.4,7c1.4,2.7,1.8,5.2,1.8,11.4v7.9h7.9
		c6.2,0,8.7,0.4,11.4,1.8c3.9,2,7,7,7,11.4s-3.1,9.4-7,11.4c-2.7,1.4-5.2,1.8-11.4,1.8h-7.9v7.9c0,9.8-1.8,13.9-7,16.7
		C658.8,4984.9,654.9,4984.9,650.7,4982.6z"/>
	<path class="st3" d="M369.4,4930c-15.5-2-30.9-12-39-25.3c-3.5-5.8-18.3-45.9-19.6-53c-3.5-18.8,3.7-38.7,18.4-50.9l3.8-3.2
		l3.7,11.2c2.1,6.2,7.5,22.9,12.1,37s10,28.8,12,32.9c8.1,16,18.8,29.8,30.9,39.7c4.1,3.3,7.5,6.3,7.5,6.7
		c0.2,1.6-19.6,6.6-23.4,5.9C375.4,4930.8,372.6,4930.4,369.4,4930z"/>
	<path class="st3" d="M559.8,4930c-5.7-0.9-15.2-3.9-15-5c0-0.4,3.3-3.3,7.5-6.7c12.6-10.3,23.8-24.9,31.5-41.1
		c2.1-4.5,7.5-19.1,11.8-32.6c4.4-13.5,9.6-29.6,11.7-35.8l3.7-11.2l3.5,2.7c14.6,11.6,22.3,32.5,18.8,51.3
		c-1.3,7.3-16.1,47.3-19.7,53.1c-3.4,5.7-11.7,14-17.5,17.7c-6.2,3.9-14.2,6.6-22.4,7.6c-4,0.4-7.5,0.8-7.8,0.8
		C565.5,4930.8,562.9,4930.3,559.8,4930z"/>
	<path class="st3" d="M466.7,4921.6c-36.6-2.3-68-23.8-83.3-56.6c-3-6.5-36.6-108.7-39.8-121.1c-6.5-25.1-2.3-54.7,11-77.1
		c3.2-5.4,3.7-5.9,5-4.7c3,2.6,11.3,6.7,17.7,8.6c5.1,1.6,8.7,2,15.8,2c12.3,0,17.6-1.7,40.5-13.1l18.2-9.1H472h20.2l18.2,9.1
		c22.9,11.5,28.2,13.1,40.5,13.1c7.1,0,10.7-0.4,15.8-2c6.4-1.9,14.7-6,17.7-8.6c1.3-1.1,1.8-0.7,5,4.7c13.2,22.4,17.4,52,11,77.1
		c-0.7,2.9-9.2,29.6-18.8,59.5c-11.8,36.6-19,57.2-21.8,63.2c-11.7,24.2-33,42.7-58.3,50.6C490.9,4920.4,476.9,4922.2,466.7,4921.6z
		 M450.3,4829.5c10.9-7.4,12.4-9.4,12.4-15.6c0-11-11.6-16.3-21.5-9.7c-1.9,1.2-3.9,2.3-4.3,2.3c-0.5,0-2.8-1.1-5.1-2.6
		c-10.1-6.4-22.2,0-21,11.3c0.5,5,2.5,7.5,10.3,13C435.7,4838.3,437.4,4838.4,450.3,4829.5z M520.5,4829.5c10.1-6.8,12-9,12.6-14.4
		c1.1-11.3-11-17.7-21-11.3c-2.3,1.5-4.6,2.6-5.1,2.6c-0.4,0-2.4-1.1-4.3-2.3c-9.9-6.6-21.5-1.3-21.5,9.7c0,6,1.6,8.2,10.2,14.2
		C505.8,4838.3,507.5,4838.4,520.5,4829.5z M492.4,4780.6c12.4-2.6,20.4-8,25-16.7c1.9-3.7,2.3-5.6,2.3-11.8
		c0.1-4.7-0.4-9.2-1.4-12.3c-3.9-12.4-14.8-25.2-26.5-31.2l-6.7-3.4v-13c0-9-0.4-13.8-1.2-15.8c-3.4-8.1-13.2-10.3-20.3-4.8
		c-4.1,3.2-4.8,6.4-4.8,20.8v13.1l-5.4,2.6c-17.9,8.3-30.8,28.7-29.4,45.9c1.1,13.7,10.6,23,27.1,26.6
		C458.8,4782.3,484.6,4782.3,492.4,4780.6z"/>
	<path class="st3" d="M457.5,4755.1c-6-1.6-7.5-2.3-7.5-4.1c0.1-5.5,7.9-15.9,14.4-19.2c4.5-2.3,10.6-2.3,15.1,0
		c6.5,3.3,14.3,13.7,14.4,19.2c0,3.1-4.2,4-20.2,4.3C465.8,4755.4,458.5,4755.3,457.5,4755.1z"/>
	<path class="st3" d="M655.9,4731.9c-3.8-1.9-6.8-7.1-6.8-11.3c0-1.5,0.8-4.3,1.8-6.1c2-3.9,7-7,11.4-7c6.7,0,13.2,6.5,13.2,13.2
		c0,4.4-3.1,9.4-7,11.4C664.1,4734.1,660.1,4734.1,655.9,4731.9z"/>
	<path class="st3" d="M280.7,4674.9c-5.1-2.6-6.8-6.9-6.8-16.6v-7.9H266c-9.8,0-13.9-1.8-16.7-7c-2.2-4.4-2.2-7.9,0-12.3
		c2.7-5.3,6.8-7,16.7-7h7.9v-7.9c0-9.8,1.8-13.9,7-16.7c4.4-2.2,7.9-2.2,12.3,0c5.3,2.7,7,6.8,7,16.7v7.9h7.9c9.8,0,13.9,1.8,16.7,7
		c2.2,4.4,2.2,7.9,0,12.3c-2.7,5.3-6.8,7-16.7,7h-7.9v7.9c0,9.8-1.8,13.9-7,16.7C288.9,4677.2,284.9,4677.2,280.7,4674.9z"/>
	<path class="st3" d="M385.5,4645.6c-9.3-2.5-16.5-8.7-20.7-17.7c-1.8-4.1-1.9-5-1.9-36.2v-32l2.4-4.9c6-12.3,19.3-19.5,32.3-17.4
		c3.2,0.5,9.4,3.1,17.8,7.2l12.9,6.3v41v41l-11.4,5.7C400.5,4646.7,394.7,4648.1,385.5,4645.6z"/>
	<path class="st3" d="M543.3,4645.6c-2.5-0.7-9.7-3.9-16-7l-11.5-5.7v-41v-41l13-6.3c8.3-4.1,14.6-6.7,17.7-7.2
		c13.1-2,26.2,5.2,32.3,17.5l2.4,4.8v32c0,31.2-0.1,32.1-1.9,36.2c-4.3,9.2-11.3,15.2-20.9,17.7
		C552.1,4647.2,549.3,4647.2,543.3,4645.6z"/>
	<path class="st3" d="M454.5,4591.7v-32.4H472h17.5v32.4v32.4H472h-17.5V4591.7z"/>
	<path class="st3" d="M650.7,4612.6c-5.1-2.6-6.8-6.9-6.8-16.6v-7.9H636c-6.2,0-8.7-0.4-11.4-1.8c-3.9-2-7-7-7-11.4s3.1-9.4,7-11.4
		c2.7-1.4,5.2-1.8,11.4-1.8h7.9v-7.9c0-9.8,1.8-13.9,7-16.7c4.4-2.2,7.9-2.2,12.3,0c5.3,2.7,7,6.8,7,16.7v7.9h7.9
		c6.2,0,8.7,0.4,11.4,1.8c3.9,2,7,7,7,11.4s-3.1,9.4-7,11.4c-2.7,1.4-5.2,1.8-11.4,1.8h-7.9v7.9c0,9.8-1.8,13.9-7,16.7
		C658.8,4614.9,654.9,4614.9,650.7,4612.6z"/>
</g>
</svg>
