<?xml version="1.0" encoding="utf-8"?>
<!-- Generator: Adobe Illustrator 25.0.0, SVG Export Plug-In . SVG Version: 6.00 Build 0)  -->
<svg width="96" height="104" version="1.1" id="Layer_1" xmlns="http://www.w3.org/2000/svg" xmlns:xlink="http://www.w3.org/1999/xlink" x="0px" y="0px"
	 viewBox="0 0 96 104" style="enable-background:new 0 0 96 104;" xml:space="preserve">
<style type="text/css">
	.st0{fill-rule:evenodd;clip-rule:evenodd;fill:#FF4361;}
	.st1{fill-rule:evenodd;clip-rule:evenodd;fill:url(#SVGID_1_);}
	.st2{fill-rule:evenodd;clip-rule:evenodd;fill:url(#SVGID_2_);}
	.st3{fill:#FFFFFF;}
</style>
<g>
	<path class="st0" d="M47.7,17c14.6,0,26.5,11.9,26.5,26.5S62.3,70,47.7,70S21.2,58.1,21.2,43.5S33.1,17,47.7,17z"/>
	
		<linearGradient id="SVGID_1_" gradientUnits="userSpaceOnUse" x1="20.1983" y1="1049.1088" x2="75.2049" y2="985.8875" gradientTransform="matrix(1 0 0 1 0 -974)">
		<stop  offset="0" style="stop-color:#F80759"/>
		<stop  offset="1" style="stop-color:#BC4E9C"/>
	</linearGradient>
	<path class="st1" d="M47.7,17c14.6,0,26.5,11.9,26.5,26.5S62.3,70,47.7,70S21.2,58.1,21.2,43.5S33.1,17,47.7,17z"/>
</g>
<path class="st0" d="M42.2,1h10c16.6,0,30,13.4,30,30v10c0,16.6-13.4,30-30,30h-10c-16.6,0-30-13.4-30-30V31
	C12.2,14.4,25.7,1,42.2,1z"/>
<linearGradient id="SVGID_2_" gradientUnits="userSpaceOnUse" x1="11.2072" y1="1051.3871" x2="83.2163" y2="968.6248" gradientTransform="matrix(1 0 0 1 0 -974)">
	<stop  offset="0" style="stop-color:#F46B45"/>
	<stop  offset="1" style="stop-color:#EEA849"/>
</linearGradient>
<path class="st2" d="M42.2,1h10c16.6,0,30,13.4,30,30v10c0,16.6-13.4,30-30,30h-10c-16.6,0-30-13.4-30-30V31
	C12.2,14.4,25.7,1,42.2,1z"/>
<g transform="translate(0.000000,512.000000) scale(0.100000,-0.100000)">
	<path class="st3" d="M424.3,5085c-5.1-1.4-9.2-3.9-13.7-8.4c-3.5-3.5-4.8-5.3-6.8-9.3c-3.8-7.7-4.7-12-4.7-21.2s1-13.5,4.7-21.2
		c2-4.1,3.3-5.8,6.8-9.3c12.3-12.4,27.6-12.4,39.9,0c3.5,3.5,4.8,5.3,6.8,9.3c3.8,7.7,4.7,12,4.7,21.2s-1,13.5-4.7,21.2
		c-2,4.1-3.3,5.8-6.8,9.3C442.6,5084.4,433.3,5087.4,424.3,5085z"/>
	<path class="st3" d="M503.9,5085c-5.1-1.4-9.2-3.9-13.7-8.4c-3.5-3.5-4.8-5.3-6.8-9.3c-3.8-7.7-4.7-12-4.7-21.2s1-13.5,4.7-21.2
		c2-4.1,3.3-5.8,6.8-9.3c12.3-12.4,27.6-12.4,39.9,0c3.5,3.5,4.8,5.3,6.8,9.3c3.8,7.7,4.7,12,4.7,21.2s-1,13.5-4.7,21.2
		c-2,4.1-3.3,5.8-6.8,9.3C522.2,5084.4,512.9,5087.4,503.9,5085z"/>
	<path class="st3" d="M360.1,5020.8c-5.1-1.4-9.2-3.9-13.7-8.4c-3.5-3.5-4.8-5.3-6.8-9.3c-3.8-7.7-4.7-12-4.7-21.2s1-13.5,4.7-21.2
		c2-4.1,3.3-5.8,6.8-9.3c12.3-12.4,27.6-12.4,39.9,0c3.5,3.5,4.8,5.3,6.8,9.3c3.8,7.7,4.7,12,4.7,21.2s-1,13.5-4.7,21.2
		c-2,4.1-3.3,5.8-6.8,9.3C378.4,5020.2,369.1,5023.2,360.1,5020.8z"/>
	<path class="st3" d="M568.1,5020.8c-5.1-1.4-9.2-3.9-13.7-8.4c-3.5-3.5-4.8-5.3-6.8-9.3c-3.8-7.7-4.7-12-4.7-21.2s1-13.5,4.7-21.2
		c5.5-11,16.3-18.6,26.7-18.6c7.2,0,13.8,3.1,20,9.2c3.5,3.5,4.8,5.3,6.8,9.3c3.8,7.7,4.7,12,4.7,21.2s-1,13.5-4.7,21.2
		c-2,4.1-3.3,5.8-6.8,9.3C586.4,5020.2,577.1,5023.2,568.1,5020.8z"/>
	<path class="st3" d="M461.5,4973c-12.2-1.7-16.7-2.7-23.8-5.5c-8.8-3.4-15.6-8-22-14.5c-6.5-6.7-10.5-13.5-13.9-23.9
		c-3.6-10.9-4.6-12.3-15.1-20.6c-12.2-9.7-17.2-16.3-19.1-25.1c-2.3-11.1,1.2-27.1,8.8-39.3c3.7-6,12.9-15.5,18.8-19.3
		c17.1-11,37.7-13.5,56.5-6.8c10.2,3.7,12.7,4.2,18.6,4.2s8.3-0.5,18.6-4.2c7.7-2.8,11.6-3.4,21-3.4c11.2,0,18.6,1.5,27.6,5.8
		c10,4.7,21.1,14.5,26.7,23.8c7.6,12.3,11.1,28.2,8.8,39.3c-1.9,8.8-6.9,15.4-19.1,25.1c-10.5,8.3-11.5,9.7-15.1,20.6
		c-3.4,10.4-7.4,17.2-13.9,23.9c-12.9,13.2-29.8,19.6-52.5,20.1C467.3,4973.1,462.4,4973.1,461.5,4973z"/>
</g>
<g transform="translate(0.000000,512.000000) scale(0.100000,-0.100000)">
	<path class="st3" d="M384.1,4765.4c-10.6-2.4-21.8-10.2-27.6-19.3c-3.7-5.8-4.3-7.8-18.2-54l-12-40l-4.6-2.6
		c-9.2-5.3-17.1-15.3-20.4-25.5c-1.5-4.9-1.5-5.1-1.5-56.2v-51.3l1.6-3.1c0.8-1.7,2.4-4.3,3.5-5.6c2.6-3.1,9.1-6.6,13.4-7.2l3.2-0.5
		l0.3-14c0.2-12.7,0.3-14.2,1.8-17.1c2.4-4.9,5.2-7.9,10-10.5l4.4-2.4h17h17l4.4,2.4c4.9,2.6,6.9,4.8,9.7,10.1
		c1.8,3.5,1.9,4,2.1,17.6l0.3,14h88.7h88.7v-12.8c0-9.8,0.3-13.5,1.1-16.2c1.7-5.3,5.5-9.7,10.7-12.5l4.5-2.5h17h17l4.4,2.4
		c4.9,2.6,6.9,4.8,9.7,10.1c1.8,3.5,1.9,4,2.1,17.5l0.3,14l3.2,0.5c4.1,0.6,10.7,4.1,13,6.8c1,1.1,2.6,3.7,3.6,5.6l1.9,3.5v51.3
		c0,51.1,0,51.3-1.5,56.2c-3.3,10.3-11.2,20.2-20.4,25.5l-4.6,2.6l-12,40c-6.6,22-12.8,42.2-13.7,44.9
		c-4.5,12.8-14.5,22.5-27.6,27.2l-5.5,1.9l-90.1,0.1C403.5,4766.3,387.9,4766.2,384.1,4765.4z M570.4,4688.8
		c5.5-18.1,9.9-33,10-33.1c0-0.1-46.5-0.2-103.4-0.2c-85.1,0-103.3,0.1-103,0.9c0.2,0.5,4.6,15.3,9.8,32.8c5.3,17.5,9.7,32,9.8,32.4
		c0.1,0.3,37.8,0.4,83.5,0.3l83.3-0.2L570.4,4688.8z M397.4,4598.1c4.8-2.3,7.8-5.1,10.4-9.9c2.1-4,2.4-4.9,2.4-10.3
		s-0.2-6.2-2.4-10.3c-2.6-4.9-4.9-6.9-10.1-9.7c-3-1.5-4.4-1.8-9.4-1.8c-5.4-0.1-6.2,0.1-10.3,2.3c-4.8,2.6-7.6,5.5-10,10.5
		c-2.2,4.6-2.1,13.6,0.1,18.4c2.9,6,8.5,10.5,14.9,12.2C386.5,4600.4,394,4599.6,397.4,4598.1z M574.9,4598.1
		c4.8-2.3,7.8-5.1,10.4-9.9c2.1-4,2.4-4.9,2.4-10.3s-0.2-6.2-2.4-10.3c-2.6-4.9-4.9-6.9-10.1-9.7c-3-1.5-4.4-1.8-9.4-1.8
		c-5.4-0.1-6.2,0.1-10.3,2.3c-4.8,2.6-7.6,5.5-10,10.5c-2.2,4.6-2.1,13.6,0.1,18.4c2.9,6,8.5,10.5,14.9,12.2
		C564,4600.4,571.5,4599.6,574.9,4598.1z"/>
</g>
</svg>
