<?xml version="1.0" encoding="utf-8"?>
<!-- Generator: Adobe Illustrator 25.0.0, SVG Export Plug-In . SVG Version: 6.00 Build 0)  -->
<svg width="96" height="104" version="1.1" id="Layer_1" xmlns="http://www.w3.org/2000/svg" xmlns:xlink="http://www.w3.org/1999/xlink" x="0px" y="0px"
	 viewBox="0 0 96 104" style="enable-background:new 0 0 96 104;" xml:space="preserve">
<style type="text/css">
	.st0{fill-rule:evenodd;clip-rule:evenodd;fill:#FF4361;}
	.st1{fill-rule:evenodd;clip-rule:evenodd;fill:url(#SVGID_1_);}
	.st2{fill:#FFFFFF;}
</style>
<g>
	<path class="st0" d="M48,17c14.6,0,26.5,11.9,26.5,26.5C74.4,58.1,62.6,70,48,70S21.5,58.1,21.5,43.5S33.3,17,48,17z"/>
</g>
<path class="st0" d="M42.5,1h10c16.6,0,30,13.4,30,30v10c0,16.6-13.4,30-30,30h-10c-16.6,0-30-13.4-30-30V31
	C12.5,14.4,25.9,1,42.5,1z"/>
<linearGradient id="SVGID_1_" gradientUnits="userSpaceOnUse" x1="11.4788" y1="1051.4005" x2="83.4875" y2="968.6382" gradientTransform="matrix(1 0 0 1 0 -974)">
	<stop  offset="0" style="stop-color:#FF5858"/>
	<stop  offset="1" style="stop-color:#F857A6"/>
</linearGradient>
<path class="st1" d="M42.5,1h10c16.6,0,30,13.4,30,30v10c0,16.6-13.4,30-30,30h-10c-16.6,0-30-13.4-30-30V31
	C12.5,14.4,25.9,1,42.5,1z"/>
<g transform="translate(0.000000,512.000000) scale(0.100000,-0.100000)">
	<path class="st2" d="M338.1,4956c-11-11.7-15.9-19.5-20-31.8c-7.4-22.5-4-46.6,9.6-67c2-3,37.5-39.2,98.9-100.6l95.7-95.9l-0.9-5
		c-1.2-7-1.1-22.2,0.2-29.2c3.1-16.1,10.3-30,22-42.2c10.6-11.1,23.8-18.8,39-22.9c6.8-1.8,9.1-2,20.7-2s13.9,0.2,20.7,2
		c32.3,8.6,56,34.8,61.3,67.7c1.3,8.5,0.6,25.3-1.4,33.1c-6.4,24-22.1,43.2-43.9,53.8c-16.8,8.3-32.8,10.6-51.2,7.4l-4.7-0.9
		l-120,120l-120,119.9L338.1,4956z M502.4,4757.6c3.2-1.7,6.3-7,6.3-10.7c0-2.9-2.5-6.9-5.8-9.4c-3.1-2.3-9.1-2.3-12.1,0
		c-7.6,5.7-7.6,15.4,0.2,19.8C494.9,4759.5,498.8,4759.6,502.4,4757.6z M615.4,4677.1c9.9-3.2,18.8-11.7,22.7-21.8
		c2.7-6.9,3-17.9,0.7-24.7c-10.2-30.3-49.6-35.3-67-8.5c-4.2,6.5-5.8,12.9-5.4,22.1c0.2,6.5,0.6,8.1,3.2,13.6
		C577.9,4675,597,4683.1,615.4,4677.1z"/>
	<path class="st2" d="M581.3,4894.4l-68.2-68.3l31-30.9l30.9-31l42.6,42.6c23.4,23.4,44.3,44.9,46.5,47.7
		c11.5,15.2,17.2,35.3,15.1,53.4c-2.3,19.4-8.5,32.4-22.8,47.4l-6.9,7.3L581.3,4894.4z"/>
	<path class="st2" d="M414.2,4727.1c-3.8-3.8-4.7-4.3-6.6-3.9c-18.9,3.6-36.6,1.3-53.7-7.1c-22-10.8-37.2-29.5-43.9-53.8
		c-1.4-5-1.7-8.4-1.7-19.9c-0.1-11.8,0.2-14.8,1.7-20.8c3.6-14.3,12.2-29.1,22.9-39.3c10.9-10.4,22.6-17,37-20.8
		c6.8-1.8,9.1-2,20.7-2s13.9,0.2,20.7,2c31.3,8.4,54.3,32.8,60.9,64.6c1.5,7.1,1.7,22.2,0.4,29.6l-0.9,5l4.6,4.7l4.7,4.7l-30.7,30.7
		c-16.9,16.9-30.9,30.7-31.1,30.7S416.5,4729.6,414.2,4727.1z M397.8,4678.4c12-2.6,21.3-9.9,26.4-20.7c2.6-5.4,3-7,3.2-13.6
		c0.6-12.4-3.2-22-11.8-29.9c-16.9-15.4-44.2-11.7-56.5,7.5c-4.3,6.8-5.8,12.9-5.4,21.8c0.3,7.2,0.6,8.5,3.3,14.1
		c5.2,10.8,14.3,18.1,26,20.6C389.2,4679.7,391.4,4679.7,397.8,4678.4z"/>
</g>
</svg>
