<?xml version="1.0" encoding="utf-8"?>
<!-- Generator: Adobe Illustrator 25.0.0, SVG Export Plug-In . SVG Version: 6.00 Build 0)  -->
<svg width="96" height="104" version="1.1" id="Layer_1" xmlns="http://www.w3.org/2000/svg" xmlns:xlink="http://www.w3.org/1999/xlink" x="0px" y="0px"
	 viewBox="0 0 96 104" style="enable-background:new 0 0 96 104;" xml:space="preserve">
<style type="text/css">
	.st0{fill-rule:evenodd;clip-rule:evenodd;fill:#FF4361;}
	.st1{fill-rule:evenodd;clip-rule:evenodd;fill:url(#SVGID_1_);}
	.st2{fill-rule:evenodd;clip-rule:evenodd;fill:url(#SVGID_2_);}
	.st3{fill:#FFFFFF;}
</style>
<g>
	<path class="st0" d="M48,17.8c14.5,0,26.2,11.8,26.2,26.2S62.5,70.3,48,70.3S21.8,58.5,21.8,44.1S33.5,17.8,48,17.8z"/>
	
		<linearGradient id="SVGID_1_" gradientUnits="userSpaceOnUse" x1="28.7597" y1="1054.8177" x2="83.7596" y2="991.5476" gradientTransform="matrix(0.9905 0 0 0.9905 -7.7238 -969.3619)">
		<stop  offset="0" style="stop-color:#F80759"/>
		<stop  offset="1" style="stop-color:#BC4E9C"/>
	</linearGradient>
	<path class="st1" d="M48,17.8c14.5,0,26.2,11.8,26.2,26.2S62.5,70.3,48,70.3S21.8,58.5,21.8,44.1S33.5,17.8,48,17.8z"/>
</g>
<path class="st0" d="M43.5,1h9.9c16.4,0,29.7,13.3,29.7,29.7v9.9c0,16.4-13.3,29.7-29.7,29.7h-9.9c-16.4,0-29.7-13.3-29.7-29.7v-9.9
	C13.8,14.3,27.1,1,43.5,1z"/>
<linearGradient id="SVGID_2_" gradientUnits="userSpaceOnUse" x1="20.7597" y1="1056.0958" x2="92.7595" y2="973.2696" gradientTransform="matrix(0.9905 0 0 0.9905 -7.7238 -969.3619)">
	<stop  offset="0" style="stop-color:#FF416C"/>
	<stop  offset="1" style="stop-color:#FF4B2B"/>
</linearGradient>
<path class="st2" d="M43.5,1h9.9c16.4,0,29.7,13.3,29.7,29.7v9.9c0,16.4-13.3,29.7-29.7,29.7h-9.9c-16.4,0-29.7-13.3-29.7-29.7v-9.9
	C13.8,14.3,27.1,1,43.5,1z"/>
<g transform="translate(0.000000,512.000000) scale(0.100000,-0.100000)">
	<path class="st3" d="M386.1,4989.1c-18.5-12.3-26.1-25-26.3-44.1c0-4.5,0.5-9.3,1.6-12.7c0.9-3,20.3-50.2,43.2-105.1
		c22.8-54.9,41.6-100.4,41.6-101.1c0-1.3-20.2-47.4-21.2-48.4c-0.3-0.3-2.9,0.6-5.7,1.9c-25.5,11.3-55.7,7.5-78-9.8
		c-30.9-23.7-38.8-67.6-18.4-101.3c4.5-7.4,15.4-18.7,23-23.7c33.4-22.3,79.1-14.8,103.5,16.9c7.4,9.6,13,21.7,15.1,32.9
		c0.5,2.6,1.2,11,1.7,18.7c0.9,14.8,2.9,25.6,6.7,35.6c2.4,6.2,8.6,18.6,11,21.7c1.4,1.8,1.4,1.8,2.7,0c2.5-3.3,9.3-17.1,11.6-23.6
		c3.3-9.2,5.1-18.7,6-32.4c1.1-14.1,2.3-20.8,4.8-28.1c7.1-20.8,21.6-37.6,40.2-46.9c22.5-11.2,49.9-10,72.2,3.3
		c8,4.8,19.4,15.6,24.7,23.6c16.8,25.3,17.1,58.9,0.6,84.7c-6.8,10.8-18.7,21.3-31,27.4c-19,9.5-45.2,10-64.2,1.4
		c-2.7-1.3-5.2-2.3-5.6-2.3c-0.8,0-21.7,46.8-21.7,48.7c0,0.7,18.7,46.2,41.6,101c22.9,54.9,42.2,101.9,42.9,104.7
		c2.3,8.1,2.7,13.6,1.2,21.5c-2.7,15.3-10,25.4-25.8,35.8c-10,6.6-12.4,7.2-16.9,4.5c-2.5-1.5-7.3-12-42.1-90.5
		c-21.6-48.8-39.5-88.8-39.8-88.8c-0.3,0-18.2,40-39.8,88.8c-34.8,78.5-39.6,89-42.1,90.5C398.5,4996.3,396.1,4995.6,386.1,4989.1z
		 M494.5,4741.3c11.1-5.9,12.8-22.1,3.2-30.8c-13.1-11.8-33-1.5-31.5,16.2C467.3,4740.5,482,4748.1,494.5,4741.3z M395.4,4646.7
		c20.4-3.8,34.5-24.1,30.8-44.2c-5.6-30.8-42.8-42.7-64.9-20.6c-15.3,15.4-15.1,39.5,0.6,54.9C370.8,4645.4,383,4649,395.4,4646.7z
		 M590.4,4646.3c29.1-6.8,39.4-43.2,18.2-64.5c-15.6-15.5-39.7-15.1-55.2,1c-13.9,14.5-13.7,37.6,0.4,52.5
		C563.3,4645.4,576.9,4649.4,590.4,4646.3z"/>
</g>
</svg>
