<?xml version="1.0" encoding="utf-8"?>
<!-- Generator: Adobe Illustrator 25.0.0, SVG Export Plug-In . SVG Version: 6.00 Build 0)  -->
<svg width="96" height="104" version="1.1" id="Layer_1" xmlns="http://www.w3.org/2000/svg" xmlns:xlink="http://www.w3.org/1999/xlink" x="0px" y="0px"
	 viewBox="0 0 96 104" style="enable-background:new 0 0 96 104;" xml:space="preserve">
<style type="text/css">
	.st0{fill-rule:evenodd;clip-rule:evenodd;fill:#FF4361;}
	.st1{fill-rule:evenodd;clip-rule:evenodd;fill:url(#SVGID_1_);}
	.st2{fill-rule:evenodd;clip-rule:evenodd;fill:url(#SVGID_2_);}
	.st3{fill:#FFFFFF;}
</style>
<g>
	<path class="st0" d="M48,17c14.6,0,26.5,11.9,26.5,26.5S62.6,70,48,70S21.5,58.1,21.5,43.5S33.4,17,48,17z"/>
	
		<linearGradient id="SVGID_1_" gradientUnits="userSpaceOnUse" x1="20.0001" y1="1049.135" x2="75" y2="985.8649" gradientTransform="matrix(1 0 0 1 0.5 -974)">
		<stop  offset="0" style="stop-color:#F80759"/>
		<stop  offset="1" style="stop-color:#BC4E9C"/>
	</linearGradient>
	<path class="st1" d="M48,17c14.6,0,26.5,11.9,26.5,26.5S62.6,70,48,70S21.5,58.1,21.5,43.5S33.4,17,48,17z"/>
</g>
<path class="st0" d="M42.5,1h10c16.6,0,30,13.4,30,30v10c0,16.6-13.4,30-30,30h-10c-16.6,0-30-13.4-30-30V31
	C12.5,14.4,25.9,1,42.5,1z"/>
<linearGradient id="SVGID_2_" gradientUnits="userSpaceOnUse" x1="11.0001" y1="1051.4131" x2="82.9999" y2="968.5869" gradientTransform="matrix(1 0 0 1 0.5 -974)">
	<stop  offset="0" style="stop-color:#F80759"/>
	<stop  offset="1" style="stop-color:#BC4E9C"/>
</linearGradient>
<path class="st2" d="M42.5,1h10c16.6,0,30,13.4,30,30v10c0,16.6-13.4,30-30,30h-10c-16.6,0-30-13.4-30-30V31
	C12.5,14.4,25.9,1,42.5,1z"/>
<g transform="translate(0.000000,512.000000) scale(0.100000,-0.100000)">
	<path class="st3" d="M469,4916.1c-32.8-33.3-53.7-70.6-60-107.9c-1.6-10-1.3-31,0.6-41.7c6.6-35.3,27.1-71.5,59.4-104.9l11.1-11.4
		l11.1,11.4c32.3,33.5,52.8,69.6,59.4,104.9c2,10.7,2.3,31.7,0.6,41.7c-5.1,29.8-19.4,59.4-42.2,88c-7.2,9-27.6,30.4-28.9,30.4
		C479.7,4926.6,474.7,4921.8,469,4916.1z"/>
	<path class="st3" d="M317.4,4873.9c0-0.2-0.6-4-1.4-8.5c-4.1-23.4-4.6-59.7-1.2-80.3c4.2-24.8,11.5-44.3,23.6-62.3
		c6.4-9.6,24.4-27.6,34.8-34.7c13-9,31.5-18.1,49.6-24.6c4.5-1.6,4.7-2.1-3.6,9.2c-21.8,29.5-36.4,63-41,94.9
		c-1.8,11.4-1.4,34.1,0.4,45.8c1.9,10.9,5.3,23.7,9.2,34.5c1.5,3.9,2.4,7.5,2,7.9c-1.5,1.5-24.3,9.2-36.1,12.2
		C336.8,4872.1,317.4,4875.3,317.4,4873.9z"/>
	<path class="st3" d="M625.3,4872c-18.2-3.4-51.9-13.4-54.8-16.3c-0.4-0.4,0.4-4,2-7.9c3.9-10.8,7.3-23.6,9.2-34.5
		c1.9-11.7,2.2-34.4,0.4-45.8c-4.6-31.9-19.2-65.5-41-94.9c-8.3-11.2-8.1-10.8-3.6-9.2c18.1,6.5,36.7,15.7,49.6,24.6
		c10.4,7.1,28.4,25.1,34.8,34.7c12,18,19.4,37.5,23.6,62.3c3.4,20.6,2.9,56.9-1.2,80.3c-0.8,4.5-1.4,8.3-1.4,8.5
		C642.8,4874.6,633.9,4873.6,625.3,4872z"/>
	<path class="st3" d="M275.9,4759.7c-16-4.7-29-9.8-43.5-17c-7.4-3.6-14-7-14.7-7.4c-1.1-0.7-0.7-2.3,1.9-7.5
		c24.8-49.2,61.8-87.3,98.3-101.3c17.6-6.7,30-8.9,50.5-8.9c19.3,0.1,41.6,3.7,58.6,9.7l4,1.3l-8.1,2.4c-20.8,6-47.5,18.4-64.3,29.9
		c-34.1,23.2-54.6,50.4-67,89c-2.3,7.2-4.5,13.1-4.8,13C286.3,4762.7,281.4,4761.3,275.9,4759.7z"/>
	<path class="st3" d="M668.6,4749.8c-12.5-38.6-33-65.8-67-89c-16.8-11.4-43.5-23.9-64.3-29.9l-8.1-2.4l4-1.3
		c29.2-10.2,66.8-12.6,93.6-5.9c39.5,9.9,77.8,43,105.7,91.5c9,15.4,11.5,21.3,10,22.3c-0.7,0.4-7.3,3.8-14.7,7.4
		c-14.4,7.2-27.9,12.4-42.3,16.6c-5,1.4-9.9,2.9-10.8,3.2C673.2,4762.8,672,4760.5,668.6,4749.8z"/>
</g>
</svg>
