<?xml version="1.0" encoding="utf-8"?>
<!-- Generator: Adobe Illustrator 25.0.0, SVG Export Plug-In . SVG Version: 6.00 Build 0)  -->
<svg version="1.1" id="Layer_1" xmlns="http://www.w3.org/2000/svg" xmlns:xlink="http://www.w3.org/1999/xlink" x="0px" y="0px"
	 viewBox="0 0 57 57" style="enable-background:new 0 0 57 57;" xml:space="preserve">
<style type="text/css">
	.st0{fill-rule:evenodd;clip-rule:evenodd;fill:url(#SVGID_1_);}
	.st1{fill:#FFFFFF;}
</style>
<linearGradient id="SVGID_1_" gradientUnits="userSpaceOnUse" x1="-1.005790e-04" y1="-3.2854" x2="56.9999" y2="62.2856" gradientTransform="matrix(1 0 0 -1 0 58)">
	<stop  offset="0" style="stop-color:#FF416C"/>
	<stop  offset="1" style="stop-color:#FF4B2B"/>
</linearGradient>
<path class="st0" d="M24.5,0.8h7.9c13.1,0,23.8,10.6,23.8,23.7v7.9c0,13.1-10.6,23.7-23.8,23.7h-7.9c-13.1,0-23.7-10.6-23.7-23.7
	v-7.9C0.8,11.4,11.4,0.8,24.5,0.8z"/>
<g transform="translate(0.000000,512.000000) scale(0.100000,-0.100000)">
	<path class="st1" d="M268.3,5036.5c-14.4-3.9-26.5-16.1-30.3-30.5c-0.6-2.3-1.1-7.1-1.1-10.8c0-3.7,0.5-8.6,1.1-10.8
		c3.8-14.6,15.9-26.7,30.5-30.5c5.2-1.3,16.5-1.3,21.6,0c14.6,3.8,26.7,15.9,30.5,30.5c1.3,5.2,1.3,16.5,0,21.6
		c-3.8,14.7-15.8,26.7-30.5,30.5C284.9,5037.8,273.3,5037.8,268.3,5036.5z"/>
	<path class="st1" d="M233.7,4944.6c-7.9-8.3-13.5-18.2-16.3-29.1c-1.6-6.5-1.7-7.8-1.7-29.2c0-24.7,0-24.6,4.7-27.7
		c2-1.3,4.4-1.3,59-1.3s57,0.1,59,1.3c4.7,3.1,4.7,3,4.7,27.7c0,21.4-0.1,22.7-1.7,29.1c-1,3.7-3.1,9.5-4.7,12.8
		c-3,6.2-10.7,16.6-13.7,18.5c-1.6,1.1-1.8,0.9-5.2-1.7c-21.9-17.3-54.6-17.3-76.4-0.1c-1.9,1.5-3.7,2.8-4,2.8
		C237,4947.8,235.4,4946.3,233.7,4944.6z"/>
	<path class="st1" d="M123.8,4925.9c-5.7-1.8-10.6-6.3-13.2-11.9l-1.7-3.6l0.2-59.3l0.2-59.3l2.3-5.9c4-10.5,6.7-13.6,37.1-43.4
		l28.2-27.8v-15.9c0-14.6,0.1-16.1,1.4-18.2c0.8-1.3,2.4-2.9,3.7-3.7c2.3-1.3,3.7-1.4,41.2-1.4c36.9,0,39,0.1,40.9,1.3
		c1.1,0.7,2.6,2.3,3.3,3.3c1.3,2,1.3,4.1,1.3,42.8c0,35.4-0.1,41.2-1.1,44.6c-2.5,8.5-3.7,10-26,32.2
		c-19.7,19.7-21.8,21.4-27.1,24.2c-7.1,3.7-13,5.1-21.1,5.1c-7.6,0-13-1.3-19.9-4.6c-6.1-3-8-5.2-8-9.1c0-2.8,0.4-3.3,22.9-25.9
		c24-24.1,24.5-24.8,23.4-29.7c-1.1-5.2-8-8-12.5-5.2c-1.3,0.8-12.4,11.7-24.6,24.3l-22.3,22.8l-0.4,55.2
		c-0.4,54.9-0.4,55.2-1.9,58.1c-1.9,3.7-6.2,7.8-9.8,9.8C137.4,4926.2,127.2,4927,123.8,4925.9z"/>
	<path class="st1" d="M421.6,4925.9c-5.6-1.8-10.6-6.3-13.2-11.7l-1.7-3.5v-54.3v-54.4l-22.4-22.9c-12.4-12.7-23.5-23.6-24.8-24.5
		c-4.5-2.8-11.4,0-12.5,5.2c-1.1,4.9-0.6,5.6,23.4,29.7c22.6,22.7,22.9,23.1,22.9,25.9c0,4-2.3,6.5-8.3,9.3
		c-6.9,3.2-12.4,4.4-19.7,4.4c-8.1,0-14-1.4-21.1-5.1c-5.3-2.8-7.4-4.5-27.1-24.2c-22.2-22.2-23.4-23.7-26-32.2
		c-1-3.4-1.1-9.2-1.1-44.6c0-38.7,0.1-40.8,1.3-42.8c0.7-1.1,2.3-2.6,3.3-3.3c2-1.3,4-1.3,40.9-1.3c37.5,0,39,0.1,41.2,1.4
		c1.3,0.8,2.9,2.4,3.7,3.7c1.3,2.1,1.4,3.6,1.4,18.2v15.9l28.2,27.8c30.3,29.8,33,32.9,37.1,43.4l2.3,5.9v60.1v60.1l-1.6,2.8
		c-1.9,3.7-6.2,7.8-9.8,9.8C435.1,4926.2,424.9,4927,421.6,4925.9z"/>
</g>
</svg>
