<?xml version="1.0" encoding="utf-8"?>
<!-- Generator: Adobe Illustrator 25.0.0, SVG Export Plug-In . SVG Version: 6.00 Build 0)  -->
<svg version="1.1" id="Layer_1" xmlns="http://www.w3.org/2000/svg" xmlns:xlink="http://www.w3.org/1999/xlink" x="0px" y="0px"
	 viewBox="0 0 57 57" style="enable-background:new 0 0 57 57;" xml:space="preserve">
<style type="text/css">
	.st0{fill-rule:evenodd;clip-rule:evenodd;fill:url(#SVGID_1_);}
	.st1{fill:#FFFFFF;}
</style>
<linearGradient id="SVGID_1_" gradientUnits="userSpaceOnUse" x1="-1.002603e-04" y1="-3.2854" x2="56.9999" y2="62.2856" gradientTransform="matrix(1 0 0 -1 0 58)">
	<stop  offset="0" style="stop-color:#FF5858"/>
	<stop  offset="1" style="stop-color:#F857A6"/>
</linearGradient>
<path class="st0" d="M24.5,0.8h7.9c13.1,0,23.8,10.6,23.8,23.7v7.9c0,13.1-10.6,23.7-23.8,23.7h-7.9c-13.1,0-23.7-10.6-23.7-23.7
	v-7.9C0.8,11.4,11.4,0.8,24.5,0.8z"/>
<g transform="translate(0.000000,512.000000) scale(0.100000,-0.100000)">
	<path class="st1" d="M268.7,5004v-32h10.5h10.5v32v32h-10.5h-10.5V5004z"/>
	<path class="st1" d="M174.6,4992.2l-7.9-7.9l22.4-22.4c12.2-12.2,22.6-22.3,23-22.3c0.9,0,15.1,14.2,15.1,15.1
		c0,0.4-10.1,10.8-22.4,23.1l-22.3,22.3L174.6,4992.2z"/>
	<path class="st1" d="M353.6,4977.7c-12.2-12.2-22.3-22.6-22.3-23c0-0.9,14.2-15.1,15.1-15.1s44.6,43.7,44.6,44.6
		c0,0.4-3.4,4.1-7.6,8.3l-7.5,7.5L353.6,4977.7z"/>
	<path class="st1" d="M268.2,4949.8c-14.3-3.9-26.4-16-30.1-30.4c-0.6-2.2-1.1-7-1.1-10.8s0.5-8.5,1.1-10.8
		c3.8-14.6,15.8-26.6,30.4-30.4c5.1-1.3,16.4-1.3,21.5,0c14.6,3.8,26.6,15.8,30.4,30.4c1.3,5.1,1.3,16.4,0,21.5
		c-3.8,14.6-15.8,26.5-30.4,30.3C284.8,4951.2,273.2,4951.2,268.2,4949.8z"/>
	<path class="st1" d="M152.6,4909c-10.4-5.2-18.8-9.8-18.8-10.3c0-1.2,10.1-19.8,13.6-24.8c15.8-23.4,35.8-41.3,60.2-53.7l8.5-4.4
		v-69.9v-70h63.3h63.3v69.9v70l7.9,3.9c24.1,12.2,44.9,30.7,60.8,54.1c3.4,5.1,13.6,23.6,13.6,24.8c0,0.5-8.5,5.1-18.9,10.3l-19,9.4
		l-4.4-8.2c-11.6-21.9-25.2-36.6-44.5-48.3c-27.8-16.7-63.6-20.6-94.7-10.2c-30,10-51.6,28.8-67.4,58.6c-2.5,4.5-4.4,8.2-4.5,8.2
		C171.4,4918.5,162.9,4914.2,152.6,4909z"/>
	<path class="st1" d="M110.7,4789.7c-6.3-9.4-11.4-17.4-11.4-17.8c0-1.1,15.3-9.3,23.9-12.7c9.4-3.7,17.8-6.2,28.1-8.1
		c6.5-1.3,10.8-1.5,22.5-1.5c7.9-0.1,15.9,0.2,17.8,0.5l3.3,0.6v21.8v21.9l-1.9-0.4c-11-2.2-22.1-2.4-33.4-0.5
		c-10.3,1.8-17.2,4.1-27.7,9.3c-4.7,2.2-8.9,4.1-9.2,4.1S116.9,4799.1,110.7,4789.7z"/>
	<path class="st1" d="M426.5,4802.5c-4.3-2.2-10.5-4.9-13.9-6c-13.6-4.3-30.3-5.7-42.3-3.5c-3.1,0.6-5.8,1.1-6.1,1.1
		c-0.4,0-0.6-9.8-0.6-21.7v-21.8l3.4-0.6c1.8-0.3,9.8-0.6,17.7-0.5c11.7,0,16,0.3,22.5,1.5c10.5,2,18.9,4.4,28.3,8.2
		c8.8,3.6,23.8,11.5,23.8,12.7c0,0.4-5.1,8.4-11.4,17.8c-7.4,11.1-11.7,17.1-12.4,17C434.8,4806.6,430.8,4804.8,426.5,4802.5z"/>
</g>
</svg>
