<?xml version="1.0" encoding="utf-8"?>
<!-- Generator: Adobe Illustrator 25.0.0, SVG Export Plug-In . SVG Version: 6.00 Build 0)  -->
<svg width="95" height="105" version="1.1" id="Layer_1" xmlns="http://www.w3.org/2000/svg" xmlns:xlink="http://www.w3.org/1999/xlink" x="0px" y="0px"
	 viewBox="0 0 95 104" style="enable-background:new 0 0 95 104;" xml:space="preserve">
<style type="text/css">
	.st0{fill-rule:evenodd;clip-rule:evenodd;fill:#FF4361;}
	.st1{fill-rule:evenodd;clip-rule:evenodd;fill:url(#SVGID_1_);}
	.st2{fill-rule:evenodd;clip-rule:evenodd;fill:url(#SVGID_2_);}
	.st3{fill:#FFFFFF;}
</style>
<g>
	<path class="st0" d="M47.5,17C62.1,17,74,28.9,74,43.5C74,58.1,62.1,70,47.5,70C32.9,70,21,58.1,21,43.5C21,28.9,32.9,17,47.5,17z"
		/>
	
		<linearGradient id="SVGID_1_" gradientUnits="userSpaceOnUse" x1="20" y1="30.865" x2="74.9999" y2="94.1351" gradientTransform="matrix(1 0 0 -1 0 106)">
		<stop  offset="0" style="stop-color:#F80759"/>
		<stop  offset="1" style="stop-color:#BC4E9C"/>
	</linearGradient>
	<path class="st1" d="M47.5,17C62.1,17,74,28.9,74,43.5C74,58.1,62.1,70,47.5,70C32.9,70,21,58.1,21,43.5C21,28.9,32.9,17,47.5,17z"
		/>
</g>
<path class="st0" d="M42,1h10c16.6,0,30,13.4,30,30v10c0,16.6-13.4,30-30,30H42c-16.6,0-30-13.4-30-30V31C12,14.4,25.4,1,42,1z"/>
<linearGradient id="SVGID_2_" gradientUnits="userSpaceOnUse" x1="11" y1="28.587" x2="82.9998" y2="111.4132" gradientTransform="matrix(1 0 0 -1 0 106)">
	<stop  offset="0" style="stop-color:#F80759"/>
	<stop  offset="1" style="stop-color:#BC4E9C"/>
</linearGradient>
<path class="st2" d="M42,1h10c16.6,0,30,13.4,30,30v10c0,16.6-13.4,30-30,30H42c-16.6,0-30-13.4-30-30V31C12,14.4,25.4,1,42,1z"/>
<g transform="translate(0.000000,512.000000) scale(0.100000,-0.100000)">
	<path class="st3" d="M466.5,4968.6c-24.4-2.6-47.2-18.4-58.1-40.4c-5.7-11.3-7.8-20.7-7.8-34.3c0.1-33.5,22.6-62.6,55.6-71.5
		c5.4-1.5,8.9-1.8,18.8-1.8s13.4,0.3,18.8,1.8c32.9,8.9,55.5,38,55.6,71.5c0,9.8-1.1,17-3.5,24.2c-9.7,28.2-33.8,47.5-63.4,50.6
		c-4.3,0.4-8.2,0.8-8.7,0.7C473.3,4969.4,470,4969,466.5,4968.6z"/>
	<path class="st3" d="M335.8,4899.4c-11.7-1.9-21.6-7-30.5-15.9c-10.4-10.4-15.5-22-16.4-36.9c-1.8-31.8,23.7-58.5,55.7-58.5
		c13.7,0,27.2,5.3,37.3,14.5c20.9,19.1,24.6,49,8.9,72.6c-7,10.6-19.6,19.6-31.9,22.8C352.6,4899.7,341.6,4900.3,335.8,4899.4z"/>
	<path class="st3" d="M598.3,4899.7c-25.7-4.2-44.9-23.4-48.2-48.5c-1.8-12.9,1.3-26.4,8.4-37.4c15.6-23.9,46.2-32.4,71.5-19.9
		c11.8,5.8,19.8,14,25.6,25.7c4.4,9.2,6,17,5.5,27.1c-0.8,14.9-5.9,26.4-16.4,36.9c-10.4,10.4-21.7,15.5-36.3,16.1
		C604.2,4899.8,599.7,4899.8,598.3,4899.7z"/>
	<path class="st3" d="M429.2,4804.9c-14.4-2-25.2-7.4-35.8-18c-6.3-6.2-8.3-8.9-11.4-15.2c-7.2-14.2-6.9-11.4-6.9-88.8
		c0-67,0-68.2,1.7-71c1-1.6,3-3.6,4.6-4.6c2.9-1.7,3.9-1.7,93.6-1.7s90.7,0,93.6,1.7c1.6,1,3.6,3,4.6,4.6c1.7,2.8,1.7,4,1.7,71
		c0,77.4,0.3,74.6-6.9,88.8c-5.2,10.4-15.6,21.1-25.8,26.3c-13.8,7.1-14,7.2-63.8,7.4C454.2,4805.5,432.1,4805.2,429.2,4804.9z"/>
	<path class="st3" d="M311.3,4772.2c-19.2-3.8-35.1-15.9-44-33.5c-6.3-12.5-6.4-13.5-6.1-62.6l0.3-43l3.1-6.3
		c3.9-8,9.4-13.5,17.1-17.2c8.2-3.9,12.6-4.3,44.5-4.4h27l-0.7,3.2c-0.4,1.7-0.8,35.9-0.8,75.8v72.7l1.9,6.9c1,3.8,2.1,7.4,2.3,8.1
		c0.5,1.2-1.7,1.3-20.2,1.3C324.3,4773,313.3,4772.6,311.3,4772.2z"/>
	<path class="st3" d="M594,4771.9c0.3-0.8,1.3-4.4,2.3-8.2l1.9-6.9v-72.7c0-39.9-0.3-74.1-0.8-75.9l-0.7-3.1h27
		c31.8,0.1,36.3,0.5,44.5,4.4c7.7,3.7,13.2,9.2,17.1,17.2l3.1,6.3l0.3,43c0.3,49.1,0.2,50.1-6.1,62.6c-7.9,15.6-20.4,26.3-37.6,32
		c-5.4,1.8-7.6,1.9-28.7,2.3C595.3,4773.2,593.5,4773.1,594,4771.9z"/>
</g>
</svg>
