<?xml version="1.0" encoding="utf-8"?>
<!-- Generator: Adobe Illustrator 25.0.0, SVG Export Plug-In . SVG Version: 6.00 Build 0)  -->
<svg width="95" height="105" version="1.1" id="Layer_1" xmlns="http://www.w3.org/2000/svg" xmlns:xlink="http://www.w3.org/1999/xlink" x="0px" y="0px"
	 viewBox="0 0 95 104" style="enable-background:new 0 0 95 104;" xml:space="preserve">
<style type="text/css">
	.st0{fill-rule:evenodd;clip-rule:evenodd;fill:#FF4361;}
	.st1{fill-rule:evenodd;clip-rule:evenodd;fill:url(#SVGID_1_);}
	.st2{display:none;fill-rule:evenodd;clip-rule:evenodd;fill:#FFFFFF;}
	.st3{fill:#FFFFFF;}
</style>
<g>
	<path class="st0" d="M47.5,17C62.1,17,74,28.9,74,43.5C74,58.1,62.1,70,47.5,70S21,58.1,21,43.5C21,28.9,32.9,17,47.5,17z"/>
</g>
<path class="st0" d="M42,1h10c16.6,0,30,13.4,30,30v10c0,16.6-13.4,30-30,30H42c-16.6,0-30-13.4-30-30V31C12,14.4,25.4,1,42,1z"/>
<linearGradient id="SVGID_1_" gradientUnits="userSpaceOnUse" x1="11" y1="28.587" x2="82.9998" y2="111.4132" gradientTransform="matrix(1 0 0 -1 0 106)">
	<stop  offset="0" style="stop-color:#FF5858"/>
	<stop  offset="1" style="stop-color:#F857A6"/>
</linearGradient>
<path class="st1" d="M42,1h10c16.6,0,30,13.4,30,30v10c0,16.6-13.4,30-30,30H42c-16.6,0-30-13.4-30-30V31C12,14.4,25.4,1,42,1z"/>
<path class="st2" d="M64.5,31.9c0,0.1,0,0.2,0,0.3l-2.3,9.2c-0.1,0.5-0.5,0.8-1,0.8l-13.7,0.1c0,0,0,0,0,0H33.8
	c-0.5,0-0.9-0.3-1-0.8l-2.3-9.2c0-0.1,0-0.2,0-0.3c-0.9-0.3-1.5-1.1-1.5-2.1c0-1.2,1-2.2,2.2-2.2s2.2,1,2.2,2.2
	c0,0.7-0.3,1.3-0.8,1.7l2.9,2.9c0.7,0.7,1.7,1.1,2.7,1.1c1.2,0,2.4-0.6,3.1-1.5l4.7-6.2c-0.4-0.4-0.6-0.9-0.6-1.5
	c0-1.2,1-2.2,2.2-2.2c1.2,0,2.2,1,2.2,2.2c0,0.6-0.2,1.1-0.6,1.5c0,0,0,0,0,0l4.7,6.3c0.7,1,1.9,1.6,3.1,1.6c1,0,2-0.4,2.7-1.1
	l2.9-2.9c-0.5-0.4-0.8-1-0.8-1.7c0-1.2,1-2.2,2.2-2.2c1.2,0,2.2,1,2.2,2.2C66,30.7,65.4,31.6,64.5,31.9z M62,45.5c0-0.6-0.5-1-1-1
	H34.1c-0.6,0-1,0.5-1,1V48c0,0.6,0.5,1,1,1H61c0.6,0,1-0.5,1-1V45.5z"/>
<g transform="translate(0.000000,512.000000) scale(0.100000,-0.100000)">
	<path class="st3" d="M463.1,5001.9c-1.2-0.8-8-7.5-15.3-15c-7.3-7.5-14.3-14.1-15.6-14.8c-3.6-1.9-6.2-1.5-24.8,3.5
		c-18.1,4.9-23.1,5.6-27.2,3.4c-4.3-2.2-5.7-5.6-10.8-24.5c-2.7-10.1-5.6-19.5-6.4-20.9c-2.3-3.8-5.1-5-25.1-10.3
		c-18.5-4.9-21.8-6.4-24-10.6c-2.1-4.1-1.5-8.9,3.4-27.1c2.6-9.6,4.7-18.6,4.7-20c0-4.2-1.8-6.6-14.5-19.2
		c-16-15.7-17.1-17.3-17.1-23.5s1.1-7.8,17.1-23.5c12.7-12.6,14.5-15,14.5-19.2c0-1.5-2.1-10.4-4.7-20c-5-18.2-5.6-23-3.4-27.1
		c2.2-4.3,5.6-5.7,24.5-10.8c10.1-2.7,19.5-5.6,20.9-6.4c3.8-2.3,4.9-5,10.3-25.1c4.9-18.5,6.4-21.8,10.6-23.9
		c4.1-2.1,9.1-1.5,27.2,3.4c9.6,2.6,18.6,4.7,19.9,4.7c4.2,0,6.6-1.9,19.2-14.5c15.7-16,17.3-17.1,23.5-17.1
		c6.2,0,7.8,1.1,23.5,17.1c12.6,12.7,15,14.5,19.2,14.5c1.5,0,10.4-2.1,20-4.7c18.2-5,23-5.6,27.1-3.4c4.3,2.2,5.7,5.6,10.8,24.5
		c2.7,10.1,5.6,19.5,6.4,20.9c2.3,3.8,5,4.9,25.1,10.3c18.5,4.9,21.8,6.4,23.9,10.6c2.1,4.1,1.5,8.9-3.4,27.1
		c-2.6,9.6-4.7,18.6-4.7,20c0,4.2,1.8,6.6,14.5,19.2c16,15.7,17.1,17.3,17.1,23.5s-1.1,7.8-17.1,23.5c-12.7,12.6-14.5,15-14.5,19.2
		c0,1.5,2.1,10.4,4.7,20c2.6,9.6,4.7,19,4.7,21c0,4.4-1.7,8-5,10.2c-1.3,0.9-10.9,4-21.2,6.8c-10.4,2.8-19.8,5.7-21,6.5
		c-3.2,2.1-4.5,5.4-9.7,24.9c-4.9,18.5-6.4,21.8-10.6,23.9c-4.1,2.1-8.9,1.5-27.1-3.4c-18.6-5-21.2-5.4-24.9-3.5
		c-1.3,0.7-8.3,7.3-15.6,14.8c-7.3,7.4-14.1,14.2-15.3,15c-1.5,1-3.8,1.5-6.9,1.5C466.9,5003.4,464.5,5002.9,463.1,5001.9z
		 M480.3,4924.4c14.5-1,32.3-7.4,45.9-16.4c23.3-15.6,39.2-39.6,44.3-67.5c2.1-11.5,1.5-31.3-1.5-42.6c-4.8-18.1-13.6-33.3-27-46.9
		c-21.7-21.6-49.7-32-80.3-29.7c-23.8,1.8-45.8,12.1-63.5,29.8c-13.3,13.3-22.1,28.4-27,46.8c-2.1,7.7-2.3,9.7-2.3,25.1
		s0.2,17.4,2.3,25.1c5.1,19,13.8,33.8,27.9,47.6c13.9,13.5,27.9,21.5,46,26.2c8,2.1,22.1,3.8,26.8,3.2
		C472.9,4925,476.8,4924.7,480.3,4924.4z"/>
	<path class="st3" d="M450.6,4897.8c-27.3-7-48.6-28.4-55.5-55.8c-1.6-6.5-2.1-10.3-2.1-19.1s0.4-12.6,2.1-19.1
		c7-27.4,28.4-48.8,55.8-55.8c11.5-2.9,26.6-2.9,38.1,0c27.4,7,48.8,28.4,55.8,55.8c2.9,11.5,2.9,26.6,0,38.1
		c-7,27.5-28.3,48.8-55.8,55.8C477.6,4900.8,462,4900.8,450.6,4897.8z M515.1,4846.1c1.5-0.9,3.3-2.8,4.1-4.2
		c1.5-3,1.7-8.8,0.3-11.5c-1.4-2.7-53.7-55.2-56.5-56.7c-2.7-1.5-8.6-1.5-11.2-0.3c-2.7,1.4-29.6,28.1-31,30.9
		c-1.5,3-1.5,8.6,0.1,11.9c2.7,5,10.9,7.6,16.1,5c1-0.5,6-5,11.1-10l9.1-9.1l22.1,21.9c12.1,12.1,22.7,22.4,23.7,22.9
		C505.7,4848.3,512.1,4848,515.1,4846.1z"/>
	<path class="st3" d="M303.3,4667.9c-18-31.4-18.9-33-18.9-37.3c0-5.2,2-9.1,6-11.4c2.1-1.3,7-1.9,29.2-3.2
		c14.6-0.9,26.8-1.8,27.2-2.1c0.4-0.2,7.3-10.5,15.3-22.8c9.7-15.1,15.4-23,17.1-23.9c3.4-2.1,10.6-2.1,14,0
		c2.9,1.6,3.9,3.3,26.3,42.8l15.6,27.6l-5.5,5.6c-3,3-6.1,5.5-6.8,5.5s-8.1-1.8-16.2-3.9c-13.4-3.6-15.5-3.9-22.2-3.6
		c-6.4,0.3-8.3,0.8-13.8,3.4c-7.7,3.8-14.5,10.4-17.8,17.4c-1.4,2.8-4.1,11.3-6.1,18.8c-2,7.5-4,14.1-4.5,14.6
		c-0.9,0.9-16.9,5.5-19.1,5.5C322.8,4700.8,313.8,4686,303.3,4667.9z"/>
	<path class="st3" d="M606.5,4698.3c-4.7-1.3-8.8-2.9-9.2-3.6c-0.3-0.7-2.4-7.7-4.5-15.6s-4.9-16.3-6.2-18.6
		c-3.4-6.2-9.9-12.2-17.2-15.8c-5.5-2.7-7.3-3.2-13.8-3.5c-6.7-0.3-8.7,0-22.1,3.6c-8,2.1-15.4,3.9-16.2,3.9c-0.9,0-4-2.5-7-5.5
		l-5.5-5.6l15.2-26.8c22.9-40.3,23.9-42,26.8-43.6c3.4-2.1,10.6-2.1,14,0c1.7,0.9,7.4,8.8,17.2,24c8,12.3,15,22.7,15.6,22.8
		c0.5,0.3,12.7,1.1,27.1,2c22.1,1.4,26.6,1.8,28.9,3.2c4,2.4,6,6.2,6,11.5c0,4.3-0.9,5.9-18.9,37.3c-12.9,22.3-19.4,32.8-20.4,32.7
		C615.5,4700.7,611.1,4699.6,606.5,4698.3z"/>
</g>
</svg>
