<?xml version="1.0" encoding="utf-8"?>
<!-- Generator: Adobe Illustrator 25.0.0, SVG Export Plug-In . SVG Version: 6.00 Build 0)  -->
<svg width="95" height="105" version="1.1" id="Layer_1" xmlns="http://www.w3.org/2000/svg" xmlns:xlink="http://www.w3.org/1999/xlink" x="0px" y="0px"
	 viewBox="0 0 95 105" style="enable-background:new 0 0 95 105;" xml:space="preserve">
<style type="text/css">
	.st0{fill-rule:evenodd;clip-rule:evenodd;fill:#FF4361;}
	.st1{fill-rule:evenodd;clip-rule:evenodd;fill:url(#SVGID_1_);}
	.st2{fill-rule:evenodd;clip-rule:evenodd;fill:url(#SVGID_2_);}
	.st3{display:none;fill-rule:evenodd;clip-rule:evenodd;fill:#FFFFFF;}
	.st4{fill:#FFFFFF;}
</style>
<g>
	<path class="st0" d="M47.5,18C62.1,18,74,29.9,74,44.5C74,59.1,62.1,71,47.5,71C32.9,71,21,59.1,21,44.5C21,29.9,32.9,18,47.5,18z"
		/>
	
		<linearGradient id="SVGID_1_" gradientUnits="userSpaceOnUse" x1="20" y1="29.865" x2="74.9999" y2="93.1351" gradientTransform="matrix(1 0 0 -1 0 106)">
		<stop  offset="0" style="stop-color:#F80759"/>
		<stop  offset="1" style="stop-color:#BC4E9C"/>
	</linearGradient>
	<path class="st1" d="M47.5,18C62.1,18,74,29.9,74,44.5C74,59.1,62.1,71,47.5,71C32.9,71,21,59.1,21,44.5C21,29.9,32.9,18,47.5,18z"
		/>
</g>
<path class="st0" d="M43,1h10c16.6,0,30,13.4,30,30v10c0,16.6-13.4,30-30,30H43c-16.6,0-30-13.4-30-30V31C13,14.4,26.4,1,43,1z"/>
<linearGradient id="SVGID_2_" gradientUnits="userSpaceOnUse" x1="12" y1="28.587" x2="83.9998" y2="111.4132" gradientTransform="matrix(1 0 0 -1 0 106)">
	<stop  offset="0" style="stop-color:#FF416C"/>
	<stop  offset="1" style="stop-color:#FF4B2B"/>
</linearGradient>
<path class="st2" d="M43,1h10c16.6,0,30,13.4,30,30v10c0,16.6-13.4,30-30,30H43c-16.6,0-30-13.4-30-30V31C13,14.4,26.4,1,43,1z"/>
<path class="st3" d="M51.4,41.6c0.2-0.2,0.3-0.5,0.3-0.8v-2.7H63v8.1c0,0.7-0.3,1.4-0.8,1.9c-0.5,0.5-1.2,0.8-1.9,0.8H35.7
	c-0.7,0-1.4-0.3-1.9-0.8C33.3,47.7,33,47,33,46.3v-8.1h11.2v2.7c0,0.3,0.1,0.5,0.3,0.8c0.2,0.2,0.5,0.3,0.8,0.3h5.4
	C51,42,51.2,41.9,51.4,41.6z M50.1,38.2h-4.3v2.2h4.3V38.2z M62.2,28.1c-0.5-0.5-1.2-0.8-1.9-0.8h-5.9v-2.7c0-0.5-0.2-0.8-0.5-1.2
	c-0.3-0.3-0.7-0.5-1.1-0.5h-9.6c-0.4,0-0.8,0.2-1.1,0.5c-0.3,0.3-0.5,0.7-0.5,1.2v2.7h-5.9c-0.7,0-1.4,0.3-1.9,0.8
	C33.3,28.7,33,29.3,33,30v6.5h30V30C63,29.3,62.7,28.7,62.2,28.1z M52.3,27.3h-8.6v-2.2h8.6V27.3z"/>
<g transform="translate(0.000000,512.000000) scale(0.100000,-0.100000)">
	<path class="st4" d="M375.7,4978.6c-45-3.2-83.7-37.4-92.8-82.3c-2.1-10.2-2.2-31.9-0.3-41.2c7.7-37.3,33.6-66.9,68.8-78.6
		c52.5-17.5,109.1,8.2,130,59c15.5,37.8,7.1,81.9-21.1,111.3C438,4970.1,409,4981,375.7,4978.6z M387.8,4946c4.3-1.7,5.6-4,6.1-9.8
		l0.4-5.2l3.3-1.3c5.2-2,10.3-6,13-10.2c3.8-6,4.8-10.9,4.5-21.3c-0.2-8.2-0.4-9.2-2.1-10.9c-4.2-4.4-8.6-4.6-13.1-0.6
		c-2.5,2.3-2.5,2.3-2.9,11.7c-0.6,13.5-1.4,14.5-12.3,14.5c-6.5,0-7-0.1-9.2-2.3c-2.3-2.3-2.3-2.4-2.3-11.9c0-8.9,0.2-9.7,1.9-11.7
		c1.8-2.1,2.4-2.2,10.5-2.7c7.1-0.4,9.6-1,13.5-2.6c5.7-2.6,10.5-7.2,13.4-13.2c2.1-4,2.2-5.3,2.5-14.8c0.4-11.4-0.6-16.9-4.2-22.5
		c-2.6-4.1-7.8-8.3-12.8-10.4l-4.3-1.8v-4.2c0-5.2-1.6-8.5-4.9-10.2c-4.3-2.2-9.4-0.5-12,4c-0.5,0.9-1.1,3.7-1.3,6.3
		c-0.4,4.5-0.5,4.7-3.3,5.7c-4.6,1.6-9.3,5-12.2,9c-4.4,5.9-5.2,9.2-5.2,20.8v10.3l2.7,2.7c3.5,3.5,7.9,3.7,11.5,0.6
		c3.1-2.5,4-6.1,4-15.1c0-7.8,1-9.8,5.3-11.5c3.6-1.3,11.5-0.9,14.4,0.9c3.4,2.1,4.1,4.3,4.1,13.1c0,12.6-1.4,14-14.3,14.8
		c-10.1,0.5-14.2,2.2-20.3,8.2c-6.5,6.4-7.6,10.6-7.3,25.8c0.2,11.9,0.3,12.5,2.6,16.5c2.9,5.5,9,10.9,14,12.6l3.9,1.4v4
		c0,5.2,2.1,9.1,5.6,10.9C384.6,4947.4,384.6,4947.4,387.8,4946z"/>
	<path class="st4" d="M521.5,4841.6c-4-1.2-7.8-4-12.1-9.3c-11.7-13.8-17.9-26.9-20.3-43.1c-1.1-7.8-0.5-23.2,1.3-30.9
		c0.6-2.9,1.1-5.6,1.2-6.1c0-0.8-5.4-1-24.6-1c-25.3,0-30.3-0.5-35.9-3.3c-4.3-2.1-9.4-7.5-11.7-12.1c-1.7-3.4-2-5.1-2-11.9
		c0-8.9,1.3-12.5,6.3-18.3c2.5-2.9,2.6-3.3,1.6-5.2c-4.3-8.4-1.8-22.8,5.1-29.6l2.3-2.4l-1.6-3.6c-2.5-5.7-2.3-14.9,0.6-21.1
		c1.2-2.6,3.3-5.9,4.5-7.2l2.4-2.5l-1.7-5.8c-1.3-4.4-1.6-6.8-1.2-10.6c1-10.2,7.7-19.1,17.1-22.8c4.4-1.8,4.7-1.8,50.3-2.1
		c26.3-0.2,48.8,0.1,52.7,0.6c8.8,1,12.3,2.1,25.9,8.8c6.1,2.9,11.9,5.6,12.9,5.9l1.7,0.5v70.5v70.4l-4.5,4
		c-8,6.9-14.3,10.4-25.6,14.2c-7.4,2.5-14,7.7-15.8,12.4c-0.5,1.3-0.9,3.8-0.9,5.8s-0.6,8.2-1.2,14c-0.6,5.8-1.5,14.9-1.9,20.4
		c-0.7,11.3-1.6,13.5-6.4,17.6C535.1,4842,527.7,4843.5,521.5,4841.6z"/>
	<path class="st4" d="M614.5,4671.5v-74.2l29.6,0.2c28.5,0.2,29.6,0.3,32.7,2c1.7,1,4.3,2.9,5.7,4.4c5.2,5.4,5,2.5,5,67.7
		c0,48.4-0.2,59.6-1.1,61.8c-1.7,4-6,8.5-10,10.3c-3.4,1.6-5.2,1.7-32.7,1.9l-29.2,0.2V4671.5z"/>
</g>
</svg>
