<?xml version="1.0" encoding="utf-8"?>
<!-- Generator: Adobe Illustrator 25.0.0, SVG Export Plug-In . SVG Version: 6.00 Build 0)  -->
<svg width="95" height="105" version="1.1" id="Layer_1" xmlns="http://www.w3.org/2000/svg" xmlns:xlink="http://www.w3.org/1999/xlink" x="0px" y="0px"
	 viewBox="0 0 95 105" style="enable-background:new 0 0 95 105;" xml:space="preserve">
<style type="text/css">
	.st0{fill-rule:evenodd;clip-rule:evenodd;fill:#FF4361;}
	.st1{fill-rule:evenodd;clip-rule:evenodd;fill:url(#SVGID_1_);}
	.st2{fill-rule:evenodd;clip-rule:evenodd;fill:url(#SVGID_2_);}
	.st3{fill:#FFFFFF;}
</style>
<g>
	<path class="st0" d="M47.5,18C62.1,18,74,29.9,74,44.5C74,59.1,62.1,71,47.5,71S21,59.1,21,44.5C21,29.9,32.9,18,47.5,18z"/>
	
		<linearGradient id="SVGID_1_" gradientUnits="userSpaceOnUse" x1="19.9999" y1="29.865" x2="74.9998" y2="93.1352" gradientTransform="matrix(1 0 0 -1 0 106)">
		<stop  offset="0" style="stop-color:#F80759"/>
		<stop  offset="1" style="stop-color:#BC4E9C"/>
	</linearGradient>
	<path class="st1" d="M47.5,18C62.1,18,74,29.9,74,44.5C74,59.1,62.1,71,47.5,71S21,59.1,21,44.5C21,29.9,32.9,18,47.5,18z"/>
</g>
<path class="st0" d="M43,1h10c16.6,0,30,13.4,30,30v10c0,16.6-13.4,30-30,30H43c-16.6,0-30-13.4-30-30V31C13,14.4,26.4,1,43,1z"/>
<linearGradient id="SVGID_2_" gradientUnits="userSpaceOnUse" x1="12" y1="28.587" x2="83.9998" y2="111.4132" gradientTransform="matrix(1 0 0 -1 0 106)">
	<stop  offset="0" style="stop-color:#F46B45"/>
	<stop  offset="1" style="stop-color:#EEA849"/>
</linearGradient>
<path class="st2" d="M43,1h10c16.6,0,30,13.4,30,30v10c0,16.6-13.4,30-30,30H43c-16.6,0-30-13.4-30-30V31C13,14.4,26.4,1,43,1z"/>
<g transform="translate(0.000000,512.000000) scale(0.100000,-0.100000)">
	<path class="st3" d="M492.9,4965.6c-17.6-4.9-32.6-19.9-37.3-37.7c-0.7-2.5-1.3-8.3-1.3-12.7c0-4.4,0.6-10.2,1.3-12.7
		c4.7-18,19.8-33,37.7-37.7c6-1.6,19.4-1.6,25.4,0c12,3.1,23.4,11.5,30.4,22.3c10.7,16.5,10.7,39.8,0,56.3
		c-7,10.8-18.4,19.2-30.4,22.3C512.9,4967.1,498.7,4967.1,492.9,4965.6z"/>
	<path class="st3" d="M443.8,4858.2c-4.7-6.4-9.8-16.6-12.6-25.3c-1.8-5.7-2-8-2-22.5c0-14.8,0.2-16.3,1.7-18.4
		c3.9-5.2-0.3-4.9,74.6-4.9c76.1,0,71.4-0.3,75.1,5.7c5.1,8.2,1.7,38.4-6,53.7c-3.1,6-10.8,17-12,17c-0.5,0-3.6-2.4-6.7-5.3
		c-20.8-19.3-51-24.6-78.4-14.1c-7.5,2.9-19.7,10.7-24.7,15.9c-1.8,2-3.7,3.5-4.2,3.5C448.2,4863.4,446,4861,443.8,4858.2z"/>
	<path class="st3" d="M416.2,4765.5c-15-2.7-29.3-8.5-39.7-16.1c-2.9-2.1-5.5-3.9-5.8-3.9c-0.9,0-19-16.2-19-17
		c0-0.4,16.1-33.2,35.8-72.9l35.8-72.1l80.1,0.2c75,0.3,80.6,0.4,85.7,1.9c7.2,2,18.1,7.1,24.3,11.3c10.5,7.2,14.8,12.6,54.2,69
		c21,30,39.3,56.7,40.5,59.3c2.2,4.2,2.4,5.3,2.1,12c-0.3,6.1-0.8,7.9-2.9,11.9c-2.9,5.1-8.9,10.2-13.9,11.7c-1.7,0.5-5.8,0.9-9,0.9
		c-6.6,0-12.6-2.3-16.9-6.4c-1.4-1.4-18.2-21.5-37.1-45c-19.2-23.6-36-43.4-37.7-44.7c-7.5-5.3-7.8-5.3-43.9-5.3
		c-30.3,0-33.3,0.2-35.9,1.5c-8.1,4.5-8.1,17,0,21.5c2.5,1.4,6,1.6,33.8,2c30.1,0.4,31,0.5,34.5,2.4c18.7,9.9,18.7,36.2,0,46.1
		c-3.5,2-4.1,2-42.6,2.4l-39,0.4l-3.5,2.5c-2,1.4-6.7,5.1-10.6,8.3c-10.6,8.6-23.6,14.5-38.1,17.6
		C440.2,4766.6,423.4,4766.8,416.2,4765.5z"/>
	<path class="st3" d="M305.8,4720.4c-2.5-0.5-23.3-10.6-25.4-12.4c-3-2.5-4.2-5.3-4.2-9.8c0-4.2,2.4-9.2,39-82.3
		c21.4-42.8,39.4-78.5,40-79.1c2.5-3,5.3-4.2,9.8-4.2c3.8,0,6.1,0.8,14.1,4.7c13.5,6.8,17,9.5,20.1,15.9c2.3,4.6,2.7,6.4,2.7,12
		l0.1,6.6l-34.4,68.9c-19,38.2-35.6,70.3-37.1,71.9C325.3,4718.6,314.6,4721.9,305.8,4720.4z"/>
</g>
</svg>
